<svg width="48" height="49" viewBox="0 0 48 49" fill="none" xmlns="http://www.w3.org/2000/svg">
<path d="M24 5.08813C20.1433 5.08813 16.3731 6.23179 13.1664 8.37448C9.95963 10.5172 7.46027 13.5626 5.98436 17.1258C4.50845 20.689 4.12228 24.6098 4.8747 28.3924C5.62711 32.175 7.4843 35.6496 10.2114 38.3767C12.9386 41.1038 16.4131 42.961 20.1957 43.7134C23.9784 44.4659 27.8992 44.0797 31.4623 42.6038C35.0255 41.1279 38.071 38.6285 40.2137 35.4218C42.3564 32.215 43.5 28.4449 43.5 24.5881C43.4945 19.4181 41.4383 14.4614 37.7826 10.8056C34.1268 7.14981 29.1701 5.09359 24 5.08813ZM24 41.0881C20.7366 41.0881 17.5465 40.1204 14.8331 38.3074C12.1197 36.4943 10.0048 33.9174 8.756 30.9024C7.50715 27.8874 7.1804 24.5698 7.81705 21.3691C8.45371 18.1685 10.0252 15.2284 12.3327 12.9209C14.6403 10.6133 17.5803 9.04183 20.781 8.40518C23.9817 7.76852 27.2993 8.09528 30.3143 9.34412C33.3293 10.593 35.9062 12.7078 37.7193 15.4212C39.5323 18.1346 40.5 21.3247 40.5 24.5881C40.495 28.9627 38.7551 33.1566 35.6618 36.2499C32.5685 39.3432 28.3746 41.0832 24 41.0881ZM15 20.8381C15 20.3931 15.132 19.9581 15.3792 19.5881C15.6264 19.2181 15.9778 18.9297 16.389 18.7594C16.8001 18.5891 17.2525 18.5446 17.689 18.6314C18.1254 18.7182 18.5263 18.9325 18.841 19.2471C19.1557 19.5618 19.37 19.9627 19.4568 20.3992C19.5436 20.8356 19.499 21.288 19.3287 21.6992C19.1584 22.1103 18.8701 22.4617 18.5 22.7089C18.13 22.9562 17.695 23.0881 17.25 23.0881C16.6533 23.0881 16.081 22.8511 15.659 22.4291C15.2371 22.0072 15 21.4349 15 20.8381ZM33 20.8381C33 21.2831 32.868 21.7182 32.6208 22.0882C32.3736 22.4582 32.0222 22.7466 31.611 22.9169C31.1999 23.0872 30.7475 23.1317 30.3111 23.0449C29.8746 22.9581 29.4737 22.7438 29.159 22.4291C28.8444 22.1145 28.6301 21.7135 28.5432 21.2771C28.4564 20.8406 28.501 20.3882 28.6713 19.9771C28.8416 19.566 29.13 19.2146 29.5 18.9673C29.87 18.7201 30.305 18.5881 30.75 18.5881C31.3467 18.5881 31.919 18.8252 32.341 19.2471C32.763 19.6691 33 20.2414 33 20.8381ZM32.7994 29.8381C30.87 33.1738 27.6619 35.0881 24 35.0881C20.3381 35.0881 17.1319 33.1756 15.2025 29.8381C15.094 29.6674 15.0211 29.4765 14.9883 29.2769C14.9554 29.0772 14.9633 28.873 15.0115 28.6766C15.0596 28.4801 15.147 28.2953 15.2683 28.1335C15.3897 27.9716 15.5426 27.836 15.7177 27.7348C15.8929 27.6335 16.0867 27.5688 16.2875 27.5444C16.4883 27.52 16.692 27.5365 16.8863 27.5928C17.0806 27.6492 17.2615 27.7443 17.4181 27.8724C17.5747 28.0004 17.7037 28.1589 17.7975 28.3381C19.1981 30.7588 21.3994 32.0881 24 32.0881C26.6006 32.0881 28.8019 30.7569 30.2006 28.3381C30.3995 27.9935 30.7272 27.742 31.1115 27.639C31.4959 27.536 31.9054 27.5898 32.25 27.7888C32.5946 27.9877 32.8461 28.3153 32.9491 28.6997C33.0522 29.084 32.9983 29.4935 32.7994 29.8381Z" fill="#299393"/>
</svg>
