<svg width="44" height="45" viewBox="0 0 44 45" fill="none" xmlns="http://www.w3.org/2000/svg">
<path d="M34.8149 5.26778C33.4393 4.47341 31.9207 3.95777 30.3459 3.75032C28.771 3.54287 27.1707 3.64767 25.6363 4.05873C24.1019 4.4698 22.6635 5.17907 21.4033 6.14607C20.143 7.11306 19.0856 8.31882 18.2914 9.6945L17.8356 10.4834C17.6797 10.7541 17.6376 11.0756 17.7186 11.3774C17.7997 11.6791 17.9972 11.9363 18.2678 12.0925L26.8494 17.0472L21.7139 26.0358L21.6071 26.0342C16.6445 26.0342 12.3466 28.9131 9.78679 32.9831C10.2239 32.8285 10.6899 32.7726 11.1512 32.8193C11.6125 32.866 12.0578 33.0143 12.4551 33.2534C14.6739 30.3211 17.9834 28.3914 21.6071 28.3914C25.3848 28.3914 28.8215 30.4892 31.0357 33.6336C31.3418 33.3519 31.7009 33.1337 32.092 32.9919C32.4832 32.85 32.8986 32.7872 33.3142 32.8071C31.2227 29.5731 28.0232 27.1185 24.2691 26.3155L28.8907 18.2258L37.1768 23.0108C37.3109 23.0883 37.459 23.1385 37.6125 23.1587C37.7661 23.179 37.9221 23.1687 38.0717 23.1286C38.2213 23.0884 38.3615 23.0192 38.4843 22.9248C38.6072 22.8305 38.7102 22.7128 38.7875 22.5786L39.2432 21.7914C40.0375 20.4157 40.5531 18.897 40.7604 17.322C40.9678 15.7471 40.8628 14.1467 40.4516 12.6123C40.0404 11.078 39.331 9.63959 38.3638 8.3794C37.3967 7.11922 36.1908 6.06188 34.8149 5.26778ZM31.3735 16.9372L26.4109 14.0709C27.3098 12.6865 28.1647 11.6321 29.1892 10.7002C30.1871 9.79193 31.3782 8.97164 32.9937 8.07907C33.2325 9.57979 33.3048 10.8291 33.1508 12.0548C32.9685 13.5194 32.4515 15.0295 31.3704 16.9356M33.4101 18.1142C34.6044 16.0116 35.2581 14.2014 35.4891 12.3471C35.6415 11.1308 35.6069 9.93021 35.4545 8.66207C37.0127 10.1359 38.0411 12.0827 38.38 14.2006C38.719 16.3184 38.3496 18.489 37.3292 20.3755L33.4101 18.1142ZM27.6021 8.95593C26.3607 10.0858 25.3628 11.3429 24.3649 12.8908L20.4678 10.6405C21.5674 8.85292 23.2147 7.46818 25.1648 6.69236C27.1148 5.91655 29.2632 5.79113 31.2902 6.33478C29.8304 7.1755 28.6424 8.00836 27.6021 8.95593ZM11.9506 35.5728C11.87 35.3303 11.7126 35.1206 11.5024 34.9753C11.2921 34.83 11.0403 34.757 10.7849 34.7673C10.5296 34.7776 10.2845 34.8706 10.0866 35.0323C9.88869 35.1941 9.74873 35.4157 9.68779 35.6639C9.28708 37.3014 8.52808 38.2002 7.66379 38.7219C6.75865 39.2688 5.60522 39.4794 4.31822 39.4794C4.00564 39.4794 3.70587 39.6035 3.48484 39.8246C3.26382 40.0456 3.13965 40.3454 3.13965 40.6579C3.13965 40.9705 3.26382 41.2703 3.48484 41.4913C3.70587 41.7123 4.00564 41.8365 4.31822 41.8365C5.82208 41.8365 7.46108 41.5976 8.88165 40.7396C9.72903 40.2278 10.4435 39.523 10.9669 38.6826C13.7782 42.2686 19.2672 42.2498 21.9968 38.6449C24.7704 42.3064 30.3882 42.2686 33.1587 38.5098C33.9108 39.5335 34.8916 40.3674 36.023 40.9449C37.1544 41.5225 38.4051 41.8278 39.6754 41.8365C39.9879 41.8365 40.2877 41.7123 40.5087 41.4913C40.7298 41.2703 40.8539 40.9705 40.8539 40.6579C40.8539 40.3454 40.7298 40.0456 40.5087 39.8246C40.2877 39.6035 39.9879 39.4794 39.6754 39.4794C37.3575 39.4794 35.0475 37.9708 34.2854 35.5854C34.21 35.348 34.0613 35.1406 33.8606 34.9929C33.66 34.8453 33.4178 34.765 33.1687 34.7637C32.9196 34.7623 32.6765 34.8398 32.4743 34.9852C32.272 35.1305 32.121 35.3363 32.0429 35.5728C30.5297 40.1441 24.5975 40.0859 23.1109 35.7629C23.031 35.5311 22.8806 35.3299 22.6809 35.1876C22.4812 35.0452 22.2421 34.9687 21.9968 34.9687C21.7515 34.9687 21.5124 35.0452 21.3127 35.1876C21.113 35.3299 20.9626 35.5311 20.8826 35.7629C19.3961 40.0859 13.4655 40.1425 11.9506 35.5728Z" fill="#299393"/>
</svg>
