<svg width="880" height="1080" viewBox="0 0 880 1080" fill="none" xmlns="http://www.w3.org/2000/svg">
<g clip-path="url(#clip0_302_3093)">
<rect width="880" height="1080" fill="#32AAAA"/>
<g clip-path="url(#clip1_302_3093)">
<rect y="1" width="880" height="1299" fill="#D4FEFE"/>
<circle cx="311" cy="737" r="247" fill="#F4FFFF"/>
<rect y="816" width="880" height="315" fill="#F3FFE0"/>
<path opacity="0.44" d="M744.995 873.283V1024.5L232 868.131L326.065 855.425L363.016 850.417L415.602 843.315L442.246 848.262L468.91 853.209H468.929L668.283 890.259L744.995 873.283Z" fill="#B8DD5F"/>
<path d="M557.098 803.884L320.052 777.594C317.607 777.323 315.758 775.257 315.758 772.797V560.68C315.758 558.353 317.418 556.358 319.705 555.935L551.394 513.056C554.361 512.507 557.098 514.784 557.098 517.801V803.884Z" fill="#B8DD5F"/>
<path d="M492.265 592.965C495.109 592.675 497.581 594.907 497.581 597.766V723.873C497.581 726.608 495.31 728.797 492.577 728.695L384.563 724.694L379.927 724.53C377.33 724.438 375.271 722.306 375.271 719.707V609.28C375.271 606.805 377.144 604.731 379.607 604.48L492.265 592.965Z" fill="#AED357"/>
<path d="M487.778 603.364C493.466 602.784 498.409 607.248 498.409 612.966V719.691C498.409 725.161 493.867 729.538 488.4 729.336L394.685 725.863C389.497 725.671 385.391 721.41 385.391 716.219V622.532C385.391 617.581 389.137 613.433 394.062 612.93L487.778 603.364Z" fill="url(#paint0_linear_302_3093)"/>
<path d="M556.867 804L765.643 777.754C768.057 777.451 769.867 775.398 769.867 772.966V560.601C769.867 558.318 768.267 556.347 766.032 555.878L562.684 513.22C559.685 512.591 556.867 514.879 556.867 517.943V804Z" fill="#2C9293"/>
<path d="M596.024 619.497C593.502 619.682 591.551 621.781 591.551 624.31V807.702L668.263 816.2V614.2L596.024 619.497Z" fill="#2C9293"/>
<path d="M740.52 619.497C743.042 619.682 744.993 621.781 744.993 624.31V873.283L668.262 890.258V614.2L740.52 619.497Z" fill="#B8DD5F"/>
<path d="M591.549 799.553L557.097 803.884L415.6 788.202V843.315L668.262 890.258V808.051L591.549 799.553Z" fill="#32AAAA"/>
<g style="mix-blend-mode:multiply" opacity="0.24">
<path d="M591.551 799.553L640.33 797.726V616.232L596.022 619.495C593.501 619.681 591.551 621.78 591.551 624.308V799.553Z" fill="#2C9293"/>
</g>
<g style="mix-blend-mode:multiply" opacity="0.44">
<path d="M468.927 794.524V853.209H468.907L326.062 858.607V855.425L363.013 850.417L442.243 848.262L452.901 847.974V791.589L468.927 794.524Z" fill="#C9B9A6"/>
</g>
<path d="M315.396 770.448V856.864L326.131 858.8V771.695L315.396 770.448Z" fill="#B8DD5F"/>
<path d="M336.455 778.204V855.608L326.129 857.394V777.054L336.455 778.204Z" fill="#AED357"/>
<path d="M1125 1131H0V793L1125 1131Z" fill="#32AAAA"/>
</g>
</g>
<defs>
<linearGradient id="paint0_linear_302_3093" x1="385.583" y1="620.581" x2="474.76" y2="729.989" gradientUnits="userSpaceOnUse">
<stop stop-color="#C8FFFF"/>
<stop offset="1" stop-color="white"/>
</linearGradient>
<clipPath id="clip0_302_3093">
<rect width="880" height="1080" fill="white"/>
</clipPath>
<clipPath id="clip1_302_3093">
<rect width="880" height="1131" fill="white"/>
</clipPath>
</defs>
</svg>
