<svg width="44" height="45" viewBox="0 0 44 45" fill="none" xmlns="http://www.w3.org/2000/svg">
<path d="M9.77789 10.6104H29.3335V12.5659H9.77789V10.6104ZM9.77789 20.3881H19.6608V22.3437H9.77789V20.3881ZM28.5732 15.4992H9.77789V17.4548H26.6189L28.5732 15.4992ZM15.6372 36.1206C15.9659 36.4974 16.3829 36.7866 16.851 36.9624C17.319 37.1382 17.8234 37.195 18.3188 37.1277H27.857C28.0839 37.1277 28.3015 37.0375 28.462 36.8771C28.6224 36.7167 28.7126 36.499 28.7126 36.2721C28.7126 36.0452 28.6224 35.8276 28.462 35.6672C28.3015 35.5067 28.0839 35.4166 27.857 35.4166H18.3188C17.2053 35.397 17.4033 34.4302 17.5598 34.1308C17.7633 33.7791 17.9222 33.4034 18.0328 33.0125C18.1065 32.6977 18.0724 32.3673 17.9359 32.0743C17.7993 31.7813 17.5683 31.5427 17.2799 31.3967C16.8172 31.1884 16.299 31.1375 15.8046 31.2516C15.3102 31.3657 14.8668 31.6386 14.5421 32.0286C14.1217 32.4625 13.5374 33.1261 12.9777 33.7715C13.3236 32.416 13.7721 30.6768 14.2121 28.9804C14.3382 28.5938 14.3131 28.1738 14.1419 27.8051C13.9706 27.4363 13.666 27.1461 13.2893 26.993C12.8722 26.8499 12.4163 26.8703 12.0137 27.0502C11.611 27.2301 11.2916 27.556 11.1199 27.9622C10.5919 28.9779 6.41189 35.9825 6.37034 36.0534C6.31272 36.1498 6.27466 36.2567 6.25834 36.3679C6.24202 36.479 6.24776 36.5923 6.27522 36.7013C6.33069 36.9213 6.4713 37.1103 6.66612 37.2267C6.86093 37.3431 7.094 37.3773 7.31404 37.3218C7.53408 37.2663 7.72308 37.1257 7.83945 36.9309C7.99589 36.6681 11.3326 31.0789 12.3849 29.2126C11.5929 32.2681 10.7202 35.6684 10.6689 35.9739C10.6113 36.1986 10.6288 36.4359 10.7186 36.6497C10.8084 36.8635 10.9656 37.0421 11.1663 37.1582C11.3901 37.2692 11.6444 37.3025 11.8891 37.2529C12.1339 37.2034 12.3552 37.0737 12.5181 36.8845C12.6721 36.7451 12.9606 36.4139 13.6878 35.5694C14.3653 34.7724 15.0593 33.9896 15.7692 33.2215C16.0357 32.9404 16.197 33.065 16.0406 33.3412C15.7344 33.7279 15.5359 34.1886 15.4651 34.6767C15.3942 35.1647 15.4536 35.6628 15.6372 36.1206Z" fill="#299393"/>
<path d="M34.2221 27.1041V39.6991H4.88878V5.47692H34.2221V11.5795L35.8477 9.95392C36.0979 9.70709 36.3722 9.48598 36.6666 9.29392V4.25469C36.6666 3.93054 36.5378 3.61966 36.3086 3.39045C36.0794 3.16124 35.7685 3.03247 35.4443 3.03247H3.66656C3.3424 3.03247 3.03153 3.16124 2.80232 3.39045C2.57311 3.61966 2.44434 3.93054 2.44434 4.25469V40.9214C2.44434 41.2455 2.57311 41.5564 2.80232 41.7856C3.03153 42.0148 3.3424 42.1436 3.66656 42.1436H35.4443C35.7685 42.1436 36.0794 42.0148 36.3086 41.7856C36.5378 41.5564 36.6666 41.2455 36.6666 40.9214V26.7766C35.9172 27.1749 35.0499 27.2911 34.2221 27.1041Z" fill="#299393"/>
<path d="M41.7121 15.0848L41.0729 14.4456C41.3991 14.0137 41.5642 13.4814 41.5397 12.9406C41.5151 12.3999 41.3024 11.8847 40.9384 11.4842C40.4653 11.0672 39.8466 10.854 39.2171 10.8911C38.5875 10.9282 37.9982 11.2125 37.5773 11.6822L22.269 26.988L21.246 30.8283C21.2298 30.8785 21.2278 30.9323 21.2403 30.9836C21.2527 31.0349 21.2792 31.0817 21.3166 31.1189C21.3541 31.1561 21.4011 31.1822 21.4525 31.1943C21.5039 31.2065 21.5576 31.2041 21.6077 31.1876L25.4345 30.1524L39.7247 15.8622L40.3285 16.4672C40.3708 16.5092 40.4044 16.5592 40.4273 16.6142C40.4502 16.6693 40.462 16.7283 40.462 16.788C40.462 16.8476 40.4502 16.9067 40.4273 16.9617C40.4044 17.0168 40.3708 17.0668 40.3285 17.1088L34.3189 23.1185C34.1355 23.302 34.0326 23.5507 34.0327 23.8101C34.0329 24.0694 34.136 24.3181 34.3195 24.5014C34.5029 24.6847 34.7517 24.7877 35.0111 24.7875C35.2704 24.7874 35.5191 24.6843 35.7024 24.5008L41.7121 18.4912C41.936 18.2675 42.1137 18.0019 42.2349 17.7096C42.3561 17.4172 42.4185 17.1039 42.4185 16.7874C42.4185 16.4709 42.3561 16.1575 42.2349 15.8652C42.1137 15.5728 41.936 15.3072 41.7121 15.0836" fill="#299393"/>
</svg>
