<svg width="154" height="93" viewBox="0 0 154 93" fill="none" xmlns="http://www.w3.org/2000/svg">
<g clip-path="url(#clip0_76_1049)">
<g clip-path="url(#clip1_76_1049)">
<path d="M0.5 74.7267V45.4263H10.6113C12.5295 45.4263 14.1708 45.6086 15.5217 45.9734C16.8726 46.3381 17.9938 46.8582 18.8651 47.5336C19.7364 48.2091 20.3714 49.0263 20.7766 49.9855C21.1819 50.9446 21.3845 52.0253 21.3845 53.2276C21.3845 53.9165 21.2832 54.5784 21.0806 55.1998C20.8779 55.828 20.5672 56.4156 20.135 56.9627C19.7094 57.5098 19.1691 58.0029 18.5139 58.4555C17.8587 58.9012 17.0752 59.2795 16.1769 59.5902C20.2025 60.4953 22.2153 62.6702 22.2153 66.1149C22.2153 67.3577 21.9789 68.506 21.5061 69.5596C21.0333 70.6133 20.3443 71.5252 19.4393 72.2884C18.5342 73.0516 17.4197 73.6528 16.0958 74.0851C14.772 74.5173 13.259 74.7335 11.5569 74.7335H0.5V74.7267ZM5.95078 58.111H10.3073C12.158 58.111 13.563 57.7733 14.5221 57.0978C15.4812 56.4224 15.9608 55.3484 15.9608 53.876C15.9608 52.4035 15.5285 51.262 14.6639 50.6136C13.7994 49.9652 12.4485 49.641 10.6113 49.641H5.95078V58.111ZM5.95078 61.8799V70.4715H11.4826C12.4958 70.4715 13.3401 70.3499 14.0223 70.1067C14.7044 69.8636 15.2515 69.5394 15.6636 69.1341C16.0756 68.7288 16.3728 68.256 16.5551 67.7157C16.7375 67.1753 16.8321 66.6012 16.8321 65.9933C16.8321 65.3854 16.7308 64.7843 16.5281 64.2777C16.3255 63.7711 16.008 63.3389 15.5758 62.9809C15.1435 62.6229 14.5896 62.3527 13.9142 62.1636C13.2387 61.9745 12.4215 61.8799 11.4623 61.8799H5.95078Z" fill="white"/>
<path d="M29.1719 53.9364V67.148C29.1719 68.4178 29.4623 69.3972 30.05 70.0929C30.6376 70.7886 31.5224 71.1398 32.6977 71.1398C33.5622 71.1398 34.3728 70.9439 35.1293 70.5589C35.8857 70.1739 36.6017 69.6471 37.2771 68.9717V53.9364H42.2821V74.7264H39.2224C38.574 74.7264 38.1485 74.4224 37.9458 73.8146L37.6014 72.153C37.1691 72.5853 36.7233 72.977 36.264 73.335C35.8047 73.693 35.3116 73.9969 34.7915 74.2468C34.2715 74.4967 33.7108 74.6926 33.1097 74.8345C32.5086 74.9763 31.8601 75.0506 31.1712 75.0506C30.0365 75.0506 29.0301 74.8547 28.1587 74.4697C27.2874 74.0847 26.5512 73.5376 25.9636 72.8352C25.3692 72.1327 24.9234 71.3019 24.6127 70.3293C24.3088 69.3634 24.1602 68.303 24.1602 67.1412V53.9297H29.1651L29.1719 53.9364Z" fill="white"/>
<path d="M50.9347 44.6157V74.7267H45.9297V44.6157H50.9347Z" fill="white"/>
<path d="M61.7558 53.5717C62.6474 53.5717 63.485 53.6663 64.2685 53.8486C65.052 54.031 65.7679 54.3012 66.4164 54.6456H72.394V56.5098C72.394 56.8205 72.3129 57.0637 72.1508 57.2393C71.9887 57.4149 71.7118 57.5365 71.32 57.6041L69.4558 57.9485C69.5909 58.2998 69.6922 58.6712 69.7733 59.063C69.8476 59.4548 69.8881 59.8668 69.8881 60.299C69.8881 61.3257 69.6787 62.2578 69.2667 63.0818C68.8547 63.9126 68.2873 64.6218 67.5646 65.2027C66.8419 65.7836 65.9841 66.2361 64.9912 66.5468C63.9983 66.8643 62.9244 67.0264 61.7558 67.0264C60.9723 67.0264 60.2091 66.9521 59.4661 66.8035C58.8177 67.1953 58.4935 67.641 58.4935 68.1274C58.4935 68.5461 58.6894 68.8568 59.0676 69.0595C59.4526 69.2553 59.9592 69.3972 60.5873 69.4782C61.2155 69.5593 61.9247 69.5998 62.7285 69.5998C63.5322 69.5998 64.3428 69.6336 65.1803 69.7011C66.0179 69.7687 66.8351 69.8903 67.6321 70.0591C68.4292 70.228 69.1384 70.4981 69.7733 70.8629C70.4014 71.2276 70.908 71.7274 71.293 72.3556C71.678 72.9838 71.8671 73.7943 71.8671 74.7872C71.8671 75.7058 71.6375 76.6041 71.1917 77.4687C70.7392 78.3332 70.084 79.11 69.2262 79.7854C68.3684 80.4608 67.3147 81.0079 66.0719 81.42C64.8291 81.832 63.4107 82.0414 61.8166 82.0414C60.2226 82.0414 58.865 81.8928 57.7032 81.5888C56.5415 81.2849 55.5756 80.8796 54.8191 80.373C54.0626 79.8665 53.4817 79.2788 53.1035 78.6169C52.7253 77.955 52.5361 77.266 52.5361 76.5501C52.5361 75.5774 52.8333 74.7602 53.4277 74.0982C54.0221 73.4363 54.8461 72.9095 55.8998 72.5177C55.3865 72.234 54.9745 71.8558 54.6638 71.383C54.3531 70.9102 54.1977 70.2955 54.1977 69.539C54.1977 69.2283 54.2517 68.9109 54.3598 68.5732C54.4679 68.2422 54.63 67.918 54.8529 67.5938C55.0758 67.2696 55.3527 66.9589 55.6972 66.6684C56.0349 66.378 56.4334 66.1213 56.8927 65.8849C55.839 65.3175 55.0082 64.5611 54.4071 63.6154C53.806 62.6698 53.5088 61.5621 53.5088 60.2923C53.5088 59.2656 53.7114 58.3403 54.1302 57.5095C54.5422 56.6787 55.1163 55.9695 55.8525 55.3819C56.5888 54.7942 57.4601 54.3417 58.4665 54.031C59.4729 53.7203 60.5671 53.5649 61.7626 53.5649L61.7558 53.5717ZM67.2472 75.5977C67.2472 75.1857 67.1256 74.848 66.8824 74.5845C66.6393 74.3211 66.3083 74.1185 65.8895 73.9766C65.4707 73.8348 64.9777 73.7267 64.4238 73.6592C63.8632 73.5916 63.2688 73.5579 62.6407 73.5579H60.6954C60.0267 73.5579 59.3783 73.4836 58.7569 73.335C58.1895 73.6457 57.7302 74.0104 57.3925 74.4427C57.0481 74.8682 56.8724 75.3545 56.8724 75.9084C56.8724 76.2731 56.967 76.6108 57.1494 76.9283C57.3317 77.2458 57.6222 77.5227 58.0207 77.7456C58.4192 77.9752 58.9325 78.1508 59.5674 78.2792C60.2023 78.4075 60.9791 78.4751 61.8977 78.4751C62.8163 78.4751 63.6336 78.4008 64.309 78.2589C64.9844 78.1171 65.5383 77.9144 65.9841 77.6578C66.4231 77.4011 66.7406 77.0972 66.9432 76.7459C67.1458 76.3947 67.2472 76.0097 67.2472 75.5977ZM61.7558 63.8248C62.3773 63.8248 62.9176 63.7438 63.3769 63.5682C63.8362 63.3925 64.2212 63.1697 64.5251 62.8657C64.8291 62.5685 65.0587 62.2105 65.2141 61.7918C65.3694 61.373 65.4437 60.9137 65.4437 60.4139C65.4437 59.3872 65.133 58.5699 64.5251 57.9688C63.9105 57.3676 62.9851 57.0705 61.7558 57.0705C60.5266 57.0705 59.6012 57.3744 58.9933 57.9688C58.3787 58.5699 58.068 59.3872 58.068 60.4139C58.068 60.9002 58.1423 61.3527 58.3044 61.7715C58.4597 62.1903 58.6894 62.555 58.9933 62.8522C59.2973 63.1561 59.6823 63.3925 60.1483 63.5614C60.6144 63.7303 61.148 63.8181 61.7558 63.8181V63.8248Z" fill="white"/>
<path d="M89.7996 74.7267H87.5504C87.0776 74.7267 86.7061 74.6524 86.4359 74.5106C86.1657 74.3687 85.9631 74.085 85.828 73.6528L85.3822 72.1736C84.8554 72.6464 84.342 73.0651 83.8355 73.4231C83.3289 73.7811 82.802 74.0783 82.2617 74.3214C81.7213 74.5646 81.1472 74.747 80.5393 74.8686C79.9314 74.9901 79.256 75.0509 78.513 75.0509C77.635 75.0509 76.8244 74.9293 76.0814 74.6929C75.3385 74.4565 74.6968 74.0986 74.17 73.6257C73.6364 73.1529 73.2176 72.5586 72.9204 71.8561C72.6232 71.1537 72.4746 70.3296 72.4746 69.3975C72.4746 68.614 72.6772 67.8373 73.096 67.0673C73.508 66.304 74.1902 65.6083 75.1493 64.9937C76.1085 64.379 77.385 63.8657 78.9791 63.4604C80.5731 63.0552 82.5521 62.8525 84.9162 62.8525V61.63C84.9162 60.2251 84.6257 59.1917 84.0381 58.5162C83.4505 57.8408 82.5927 57.5031 81.4782 57.5031C80.6677 57.5031 79.9922 57.5976 79.4519 57.7868C78.9115 57.9759 78.4387 58.192 78.047 58.4284C77.6485 58.6648 77.277 58.881 76.9392 59.0633C76.6015 59.2524 76.23 59.347 75.8248 59.347C75.4871 59.347 75.1966 59.2592 74.9535 59.0836C74.7103 58.908 74.5144 58.6918 74.3658 58.4352L73.454 56.8344C75.845 54.646 78.7292 53.5518 82.1063 53.5518C83.3221 53.5518 84.4096 53.7476 85.3619 54.1461C86.3143 54.5447 87.1181 55.0985 87.78 55.8077C88.4419 56.5169 88.9418 57.368 89.2862 58.3474C89.6307 59.3335 89.8063 60.4142 89.8063 61.5895V74.72L89.7996 74.7267ZM80.0733 71.6062C80.5866 71.6062 81.0594 71.5589 81.4917 71.4644C81.924 71.3698 82.336 71.2347 82.721 71.0456C83.106 70.8565 83.4775 70.6336 83.8355 70.3566C84.1934 70.0865 84.5514 69.7622 84.9162 69.3908V65.9123C83.4572 65.9123 82.2414 66.0068 81.2553 66.1892C80.2759 66.3716 79.4856 66.608 78.8913 66.8916C78.2969 67.1753 77.8781 67.513 77.6282 67.8913C77.3783 68.2695 77.2499 68.6883 77.2499 69.1341C77.2499 70.0189 77.5134 70.6538 78.0335 71.0321C78.5535 71.4103 79.229 71.6062 80.0665 71.6062H80.0733Z" fill="white"/>
<path d="M92.6968 74.7267V53.9368H95.6349C96.1483 53.9368 96.5062 54.0313 96.7089 54.2204C96.9115 54.4096 97.0466 54.7338 97.1141 55.1931L97.4181 57.7057C98.1611 56.4224 99.0324 55.4092 100.032 54.6662C101.032 53.9232 102.153 53.5518 103.396 53.5518C104.422 53.5518 105.273 53.7882 105.949 54.261L105.3 58.0096C105.26 58.2528 105.172 58.4284 105.037 58.523C104.902 58.6243 104.72 58.6783 104.49 58.6783C104.287 58.6783 104.01 58.631 103.659 58.5365C103.308 58.4419 102.842 58.3946 102.261 58.3946C101.221 58.3946 100.329 58.6783 99.5862 59.2524C98.8433 59.8266 98.2151 60.6709 97.7018 61.7786V74.7267H92.6968Z" fill="white"/>
<path d="M113.305 47.8778C113.305 48.3101 113.217 48.7154 113.041 49.0936C112.865 49.4719 112.629 49.8028 112.339 50.0865C112.048 50.3702 111.704 50.5999 111.319 50.7687C110.927 50.9376 110.508 51.0254 110.062 51.0254C109.617 51.0254 109.218 50.9443 108.84 50.7687C108.455 50.5999 108.117 50.377 107.833 50.0865C107.55 49.8028 107.327 49.4719 107.158 49.0936C106.989 48.7154 106.901 48.3101 106.901 47.8778C106.901 47.4456 106.982 47.0133 107.158 46.6215C107.327 46.2298 107.55 45.8921 107.833 45.6084C108.117 45.3247 108.455 45.1018 108.84 44.9329C109.225 44.7641 109.63 44.6763 110.062 44.6763C110.495 44.6763 110.927 44.7573 111.319 44.9329C111.71 45.1018 112.048 45.3247 112.339 45.6084C112.629 45.8921 112.865 46.2298 113.041 46.6215C113.217 47.0133 113.305 47.4321 113.305 47.8778ZM112.555 53.9365V74.7265H107.55V53.9365H112.555Z" fill="white"/>
<path d="M132.474 74.7267H130.225C129.752 74.7267 129.38 74.6524 129.11 74.5106C128.84 74.3687 128.637 74.085 128.502 73.6528L128.057 72.1736C127.53 72.6464 127.016 73.0651 126.51 73.4231C126.003 73.7811 125.476 74.0783 124.936 74.3214C124.396 74.5646 123.822 74.747 123.214 74.8686C122.606 74.9901 121.93 75.0509 121.187 75.0509C120.309 75.0509 119.499 74.9293 118.756 74.6929C118.013 74.4565 117.371 74.0986 116.844 73.6257C116.311 73.1529 115.892 72.5586 115.595 71.8561C115.298 71.1537 115.149 70.3296 115.149 69.3975C115.149 68.614 115.352 67.8373 115.77 67.0673C116.182 66.304 116.865 65.6083 117.824 64.9937C118.783 64.379 120.059 63.8657 121.653 63.4604C123.247 63.0552 125.226 62.8525 127.59 62.8525V61.63C127.59 60.2251 127.293 59.1917 126.706 58.5162C126.118 57.8408 125.267 57.5031 124.146 57.5031C123.335 57.5031 122.66 57.5976 122.119 57.7868C121.579 57.9759 121.106 58.192 120.715 58.4284C120.323 58.6648 119.951 58.881 119.614 59.0633C119.276 59.2524 118.904 59.347 118.499 59.347C118.161 59.347 117.871 59.2592 117.628 59.0836C117.385 58.908 117.189 58.6918 117.04 58.4352L116.128 56.8344C118.519 54.646 121.403 53.5518 124.781 53.5518C125.996 53.5518 127.077 53.7476 128.03 54.1461C128.982 54.5447 129.786 55.0985 130.448 55.8077C131.109 56.5169 131.616 57.368 131.961 58.3474C132.305 59.3335 132.474 60.4142 132.474 61.5895V74.72V74.7267ZM122.748 71.6062C123.261 71.6062 123.734 71.5589 124.166 71.4644C124.598 71.3698 125.01 71.2347 125.395 71.0456C125.78 70.8565 126.152 70.6336 126.51 70.3566C126.868 70.0865 127.232 69.7622 127.597 69.3908V65.9123C126.138 65.9123 124.916 66.0068 123.936 66.1892C122.957 66.3716 122.167 66.608 121.572 66.8916C120.978 67.1753 120.559 67.513 120.303 67.8913C120.053 68.2695 119.924 68.6883 119.924 69.1341C119.924 70.0189 120.188 70.6538 120.708 71.0321C121.228 71.4103 121.903 71.6062 122.748 71.6062Z" fill="white"/>
<path d="M135.371 74.7265V53.9365H138.431C139.079 53.9365 139.505 54.2405 139.707 54.8484L140.052 56.4897C140.471 56.0574 140.916 55.6656 141.382 55.3144C141.849 54.9632 142.342 54.6592 142.862 54.4026C143.382 54.1459 143.936 53.95 144.53 53.8149C145.124 53.6799 145.773 53.6123 146.475 53.6123C147.61 53.6123 148.616 53.8082 149.494 54.1864C150.373 54.5714 151.102 55.1118 151.696 55.8075C152.284 56.5032 152.73 57.334 153.034 58.2998C153.338 59.2657 153.486 60.3329 153.486 61.4947V74.7265H148.481V61.4947C148.481 60.2248 148.184 59.2455 147.603 58.543C147.016 57.8473 146.131 57.5028 144.962 57.5028C144.098 57.5028 143.287 57.6987 142.531 58.0905C141.774 58.4822 141.058 59.0158 140.383 59.6912V74.7265H135.378H135.371Z" fill="white"/>
<path d="M79.6953 80.4473V81.1362H73.6569V85.7697H78.6821V86.4451H73.6569V91.2272H79.6953V91.9162H72.8193V80.4473H79.6953Z" fill="white"/>
<path d="M91.1975 81.8391C91.1502 81.9336 91.0759 81.9742 90.9881 81.9742C90.9206 81.9742 90.826 81.9269 90.7179 81.8256C90.6031 81.7242 90.4545 81.6162 90.2654 81.4946C90.0763 81.373 89.8399 81.2582 89.5562 81.1569C89.2725 81.0556 88.9213 81.0015 88.5025 81.0015C88.0837 81.0015 87.719 81.0623 87.4015 81.1771C87.0841 81.2987 86.8207 81.4608 86.6045 81.6635C86.3884 81.8661 86.2263 82.1092 86.1182 82.3794C86.0034 82.6496 85.9493 82.9333 85.9493 83.2305C85.9493 83.6222 86.0304 83.9397 86.1993 84.1963C86.3681 84.453 86.5843 84.6691 86.8544 84.8448C87.1246 85.0204 87.4286 85.1757 87.773 85.2973C88.1175 85.4189 88.4687 85.5405 88.8335 85.6553C89.1982 85.7769 89.5494 85.9052 89.8939 86.047C90.2384 86.1889 90.5423 86.3713 90.8125 86.5874C91.0827 86.8035 91.2988 87.067 91.4677 87.3844C91.6365 87.7019 91.7176 88.0936 91.7176 88.5664C91.7176 89.0392 91.6365 89.4985 91.4677 89.924C91.2988 90.3496 91.0624 90.7143 90.7517 91.0318C90.441 91.3492 90.056 91.5924 89.6035 91.7747C89.1509 91.9571 88.6308 92.0449 88.05 92.0449C87.2935 92.0449 86.645 91.9098 86.0979 91.6464C85.5508 91.3762 85.0713 91.0115 84.666 90.5454L84.8957 90.1875C84.9632 90.1064 85.0375 90.0659 85.1253 90.0659C85.1726 90.0659 85.2334 90.0997 85.3144 90.1605C85.3887 90.228 85.4833 90.3023 85.5914 90.3969C85.6994 90.4914 85.8278 90.5927 85.9831 90.7076C86.1385 90.8224 86.3073 90.9237 86.51 91.0183C86.7126 91.1128 86.9422 91.1939 87.1989 91.2547C87.4556 91.3222 87.7528 91.3492 88.0837 91.3492C88.5363 91.3492 88.9415 91.2817 89.2995 91.1398C89.6575 91.0047 89.9614 90.8156 90.2046 90.5792C90.4478 90.3428 90.6369 90.0591 90.7652 89.7349C90.8935 89.4107 90.9611 89.0595 90.9611 88.688C90.9611 88.2827 90.88 87.9518 90.7112 87.6884C90.5423 87.4249 90.3262 87.2088 90.056 87.0332C89.7858 86.8576 89.4819 86.709 89.1374 86.5941C88.7929 86.4793 88.4417 86.3577 88.077 86.2429C87.7122 86.1281 87.361 85.9998 87.0165 85.8647C86.6721 85.7296 86.3681 85.5472 86.0979 85.3243C85.8278 85.1082 85.6116 84.8313 85.4428 84.507C85.2807 84.1828 85.1929 83.7708 85.1929 83.2777C85.1929 82.8927 85.2672 82.5213 85.409 82.17C85.5576 81.8121 85.767 81.5013 86.0507 81.2244C86.3343 80.9542 86.6788 80.7313 87.0908 80.5692C87.5028 80.4071 87.9757 80.3193 88.5093 80.3193C89.1036 80.3193 89.6372 80.4139 90.11 80.603C90.5828 80.7921 91.0151 81.0826 91.4069 81.4676L91.211 81.8391H91.1975Z" fill="white"/>
<path d="M104.849 80.4473V81.1497H100.823V91.9162H99.9989V81.1497H95.9463V80.4473H104.855H104.849Z" fill="white"/>
<path d="M117.776 91.9163H117.135C117.061 91.9163 117 91.896 116.946 91.8555C116.898 91.815 116.858 91.7609 116.831 91.7001L115.48 88.3702H109.847L108.503 91.7001C108.482 91.7609 108.442 91.8082 108.388 91.8555C108.334 91.896 108.266 91.923 108.192 91.923H107.557L112.251 80.4541H113.075L117.77 91.923L117.776 91.9163ZM110.104 87.7488H115.244L112.9 81.9536C112.859 81.859 112.826 81.7577 112.785 81.6429C112.744 81.528 112.711 81.4065 112.67 81.2714C112.63 81.3997 112.596 81.5213 112.555 81.6429C112.515 81.7645 112.481 81.8658 112.441 81.9603L110.097 87.7488H110.104Z" fill="white"/>
<path d="M129.387 80.4473V81.1497H125.362V91.9162H124.537V81.1497H120.485V80.4473H129.394H129.387Z" fill="white"/>
<path d="M141.491 80.4473V81.1362H135.452V85.7697H140.478V86.4451H135.452V91.2272H141.491V91.9162H134.615V80.4473H141.491Z" fill="white"/>
<path d="M152.993 81.8391C152.946 81.9336 152.872 81.9742 152.784 81.9742C152.716 81.9742 152.622 81.9269 152.514 81.8256C152.399 81.7242 152.25 81.6162 152.061 81.4946C151.872 81.373 151.636 81.2582 151.352 81.1569C151.068 81.0556 150.717 81.0015 150.298 81.0015C149.88 81.0015 149.515 81.0623 149.197 81.1771C148.88 81.292 148.617 81.4608 148.4 81.6635C148.184 81.8661 148.022 82.1092 147.914 82.3794C147.799 82.6496 147.745 82.9333 147.745 83.2305C147.745 83.6222 147.826 83.9397 147.995 84.1963C148.157 84.453 148.38 84.6691 148.65 84.8448C148.92 85.0204 149.231 85.1757 149.569 85.2973C149.913 85.4189 150.265 85.5405 150.629 85.6553C150.994 85.7769 151.345 85.9052 151.69 86.047C152.034 86.1889 152.338 86.3713 152.608 86.5874C152.879 86.8035 153.095 87.067 153.264 87.3844C153.426 87.7019 153.513 88.0936 153.513 88.5664C153.513 89.0392 153.432 89.4985 153.264 89.924C153.095 90.3496 152.858 90.7143 152.548 91.0318C152.237 91.3492 151.852 91.5924 151.399 91.7747C150.947 91.9571 150.427 92.0449 149.846 92.0449C149.089 92.0449 148.441 91.9098 147.894 91.6464C147.347 91.3762 146.867 91.0115 146.462 90.5454L146.692 90.1875C146.759 90.1064 146.833 90.0659 146.921 90.0659C146.968 90.0659 147.036 90.0997 147.11 90.1605C147.185 90.228 147.279 90.3023 147.387 90.3969C147.495 90.4914 147.624 90.5927 147.779 90.7076C147.928 90.8156 148.11 90.9237 148.306 91.0183C148.508 91.1128 148.738 91.1939 148.995 91.2547C149.251 91.3222 149.549 91.3492 149.88 91.3492C150.332 91.3492 150.737 91.2817 151.095 91.1398C151.453 91.0047 151.757 90.8156 152 90.5792C152.25 90.3428 152.433 90.0591 152.561 89.7349C152.689 89.4107 152.757 89.0595 152.757 88.688C152.757 88.2827 152.676 87.9518 152.507 87.6884C152.345 87.4249 152.122 87.2088 151.852 87.0332C151.582 86.8576 151.271 86.709 150.933 86.5941C150.596 86.4793 150.238 86.3577 149.873 86.2429C149.508 86.1281 149.157 85.9998 148.812 85.8647C148.468 85.7228 148.164 85.5472 147.894 85.3243C147.624 85.1082 147.408 84.8313 147.239 84.507C147.077 84.1828 146.989 83.7708 146.989 83.2777C146.989 82.8927 147.063 82.5213 147.205 82.17C147.353 81.8121 147.563 81.5013 147.847 81.2244C148.13 80.9542 148.475 80.7313 148.887 80.5692C149.299 80.4071 149.772 80.3193 150.305 80.3193C150.9 80.3193 151.433 80.4139 151.906 80.603C152.379 80.7921 152.811 81.0826 153.203 81.4676L153.007 81.8391H152.993Z" fill="white"/>
<path d="M73.0347 15.673L58.3845 18.2532C57.8036 18.3545 57.27 17.9087 57.27 17.3211V4.38647C57.27 3.92717 57.601 3.53541 58.0535 3.45436L72.7038 0.867438C73.2846 0.766123 73.8182 1.21191 73.8182 1.79954V14.7342C73.8182 15.1935 73.4873 15.5852 73.0347 15.6663V15.673Z" fill="#2C9293"/>
<path d="M73.0347 32.6941L58.3845 35.2743C57.8036 35.3756 57.27 34.9298 57.27 34.3422V21.4075C57.27 20.9482 57.601 20.5565 58.0535 20.4754L72.7038 17.8953C73.2846 17.794 73.8182 18.2397 73.8182 18.8274V31.762C73.8182 32.2213 73.4873 32.613 73.0347 32.6941Z" fill="#2C9293"/>
<path d="M92.7106 38.7326L76.5272 32.8428C76.1557 32.7077 75.9058 32.3498 75.9058 31.958V19.1044C75.9058 18.4493 76.5542 17.9967 77.1688 18.2196L93.3523 24.1094C93.7238 24.2445 93.9737 24.6025 93.9737 24.9942V37.8478C93.9737 38.503 93.3253 38.9555 92.7106 38.7326Z" fill="#A1CD3A"/>
<path d="M89.5023 20.5431L76.5272 15.8218C76.1557 15.6867 75.9058 15.3288 75.9058 14.937V2.08343C75.9058 1.42826 76.5542 0.975718 77.1688 1.19861L90.144 5.91992C90.5155 6.055 90.7654 6.41299 90.7654 6.80474V19.6583C90.7654 20.3135 90.117 20.766 89.5023 20.5431Z" fill="#A1CD3A"/>
</g>
</g>
<defs>
<clipPath id="clip0_76_1049">
<rect width="153" height="91.1908" fill="white" transform="translate(0.5 0.854004)"/>
</clipPath>
<clipPath id="clip1_76_1049">
<rect width="153" height="91.1908" fill="white" transform="translate(0.5 0.854004)"/>
</clipPath>
</defs>
</svg>
