<svg width="153" height="92" viewBox="0 0 153 92" fill="none" xmlns="http://www.w3.org/2000/svg">
<g clip-path="url(#clip0_67_761)">
<path d="M0 73.8725V44.5721H10.1113C12.0295 44.5721 13.6708 44.7545 15.0217 45.1192C16.3726 45.4839 17.4938 46.004 18.3651 46.6794C19.2364 47.3549 19.8714 48.1722 20.2766 49.1313C20.6819 50.0904 20.8845 51.1711 20.8845 52.3734C20.8845 53.0623 20.7832 53.7243 20.5806 54.3457C20.3779 54.9738 20.0672 55.5614 19.635 56.1085C19.2094 56.6557 18.6691 57.1487 18.0139 57.6013C17.3587 58.0471 16.5752 58.4253 15.6769 58.736C19.7025 59.6411 21.7153 61.816 21.7153 65.2607C21.7153 66.5035 21.4789 67.6518 21.0061 68.7055C20.5333 69.7591 19.8443 70.671 18.9393 71.4342C18.0342 72.1975 16.9197 72.7986 15.5958 73.2309C14.272 73.6632 12.759 73.8793 11.0569 73.8793H0V73.8725ZM5.45078 57.2568H9.80735C11.658 57.2568 13.063 56.9191 14.0221 56.2436C14.9812 55.5682 15.4608 54.4943 15.4608 53.0218C15.4608 51.5493 15.0285 50.4079 14.1639 49.7594C13.2994 49.111 11.9485 48.7868 10.1113 48.7868H5.45078V57.2568ZM5.45078 61.0257V69.6173H10.9826C11.9958 69.6173 12.8401 69.4957 13.5223 69.2526C14.2044 69.0094 14.7515 68.6852 15.1636 68.2799C15.5756 67.8747 15.8728 67.4019 16.0551 66.8615C16.2375 66.3212 16.3321 65.747 16.3321 65.1391C16.3321 64.5312 16.2308 63.9301 16.0281 63.4235C15.8255 62.917 15.508 62.4847 15.0758 62.1267C14.6435 61.7687 14.0896 61.4985 13.4142 61.3094C12.7387 61.1203 11.9215 61.0257 10.9623 61.0257H5.45078Z" fill="#4F2C1D"/>
<path d="M28.6719 53.0826V66.2942C28.6719 67.564 28.9623 68.5434 29.55 69.2391C30.1376 69.9348 31.0224 70.286 32.1977 70.286C33.0622 70.286 33.8728 70.0901 34.6293 69.7051C35.3857 69.3201 36.1017 68.7933 36.7771 68.1178V53.0826H41.7821V73.8726H38.7224C38.074 73.8726 37.6485 73.5686 37.4458 72.9607L37.1014 71.2992C36.6691 71.7314 36.2233 72.1232 35.764 72.4812C35.3047 72.8392 34.8116 73.1431 34.2915 73.393C33.7715 73.6429 33.2108 73.8388 32.6097 73.9806C32.0086 74.1225 31.3601 74.1968 30.6712 74.1968C29.5365 74.1968 28.5301 74.0009 27.6587 73.6159C26.7874 73.2309 26.0512 72.6838 25.4636 71.9813C24.8692 71.2789 24.4234 70.4481 24.1127 69.4755C23.8088 68.5096 23.6602 67.4492 23.6602 66.2874V53.0759H28.6651L28.6719 53.0826Z" fill="#4F2C1D"/>
<path d="M50.4347 43.7616V73.8726H45.4297V43.7616H50.4347Z" fill="#4F2C1D"/>
<path d="M61.2558 52.7179C62.1474 52.7179 62.985 52.8124 63.7685 52.9948C64.552 53.1772 65.2679 53.4473 65.9164 53.7918H71.894V55.656C71.894 55.9667 71.8129 56.2099 71.6508 56.3855C71.4887 56.5611 71.2118 56.6827 70.82 56.7502L68.9558 57.0947C69.0909 57.4459 69.1922 57.8174 69.2733 58.2092C69.3476 58.6009 69.3881 59.0129 69.3881 59.4452C69.3881 60.4719 69.1787 61.404 68.7667 62.228C68.3547 63.0588 67.7873 63.768 67.0646 64.3489C66.3419 64.9298 65.4841 65.3823 64.4912 65.693C63.4983 66.0105 62.4244 66.1726 61.2558 66.1726C60.4723 66.1726 59.7091 66.0983 58.9661 65.9497C58.3177 66.3414 57.9935 66.7872 57.9935 67.2735C57.9935 67.6923 58.1894 68.003 58.5676 68.2056C58.9526 68.4015 59.4592 68.5434 60.0873 68.6244C60.7155 68.7055 61.4247 68.746 62.2285 68.746C63.0322 68.746 63.8428 68.7798 64.6803 68.8473C65.5179 68.9149 66.3351 69.0364 67.1321 69.2053C67.9292 69.3741 68.6384 69.6443 69.2733 70.0091C69.9014 70.3738 70.408 70.8736 70.793 71.5018C71.178 72.1299 71.3671 72.9405 71.3671 73.9333C71.3671 74.8519 71.1375 75.7503 70.6917 76.6148C70.2392 77.4794 69.584 78.2561 68.7262 78.9316C67.8684 79.607 66.8147 80.1541 65.5719 80.5661C64.3291 80.9782 62.9107 81.1875 61.3166 81.1875C59.7226 81.1875 58.365 81.0389 57.2032 80.735C56.0415 80.4311 55.0756 80.0258 54.3191 79.5192C53.5626 79.0126 52.9817 78.425 52.6035 77.7631C52.2253 77.1011 52.0361 76.4122 52.0361 75.6962C52.0361 74.7236 52.3333 73.9063 52.9277 73.2444C53.5221 72.5825 54.3461 72.0556 55.3998 71.6639C54.8865 71.3802 54.4745 71.002 54.1638 70.5291C53.8531 70.0563 53.6977 69.4417 53.6977 68.6852C53.6977 68.3745 53.7517 68.057 53.8598 67.7193C53.9679 67.3884 54.13 67.0642 54.3529 66.7399C54.5758 66.4157 54.8527 66.105 55.1972 65.8146C55.5349 65.5242 55.9334 65.2675 56.3927 65.0311C55.339 64.4637 54.5082 63.7072 53.9071 62.7616C53.306 61.816 53.0088 60.7083 53.0088 59.4385C53.0088 58.4118 53.2114 57.4865 53.6302 56.6557C54.0422 55.8249 54.6163 55.1157 55.3525 54.528C56.0888 53.9404 56.9601 53.4879 57.9665 53.1772C58.9729 52.8665 60.0671 52.7111 61.2626 52.7111L61.2558 52.7179ZM66.7472 74.7439C66.7472 74.3319 66.6256 73.9941 66.3824 73.7307C66.1393 73.4673 65.8083 73.2647 65.3895 73.1228C64.9707 72.981 64.4777 72.8729 63.9238 72.8054C63.3632 72.7378 62.7688 72.7041 62.1407 72.7041H60.1954C59.5267 72.7041 58.8783 72.6298 58.2569 72.4812C57.6895 72.7919 57.2302 73.1566 56.8925 73.5889C56.5481 74.0144 56.3724 74.5007 56.3724 75.0546C56.3724 75.4193 56.467 75.757 56.6494 76.0745C56.8317 76.3919 57.1222 76.6689 57.5207 76.8918C57.9192 77.1214 58.4325 77.297 59.0674 77.4254C59.7023 77.5537 60.4791 77.6212 61.3977 77.6212C62.3163 77.6212 63.1336 77.5469 63.809 77.4051C64.4844 77.2633 65.0383 77.0606 65.4841 76.804C65.9231 76.5473 66.2406 76.2433 66.4432 75.8921C66.6458 75.5409 66.7472 75.1559 66.7472 74.7439ZM61.2558 62.971C61.8773 62.971 62.4176 62.89 62.8769 62.7143C63.3362 62.5387 63.7212 62.3158 64.0251 62.0119C64.3291 61.7147 64.5587 61.3567 64.7141 60.9379C64.8694 60.5192 64.9437 60.0599 64.9437 59.5601C64.9437 58.5334 64.633 57.7161 64.0251 57.115C63.4105 56.5138 62.4851 56.2166 61.2558 56.2166C60.0266 56.2166 59.1012 56.5206 58.4933 57.115C57.8787 57.7161 57.568 58.5334 57.568 59.5601C57.568 60.0464 57.6423 60.4989 57.8044 60.9177C57.9597 61.3365 58.1894 61.7012 58.4933 61.9984C58.7973 62.3023 59.1823 62.5387 59.6483 62.7076C60.1144 62.8764 60.648 62.9643 61.2558 62.9643V62.971Z" fill="#4F2C1D"/>
<path d="M89.2996 73.8726H87.0504C86.5776 73.8726 86.2061 73.7983 85.9359 73.6564C85.6657 73.5146 85.4631 73.2309 85.328 72.7986L84.8822 71.3194C84.3554 71.7922 83.842 72.211 83.3355 72.569C82.8289 72.9269 82.302 73.2241 81.7617 73.4673C81.2213 73.7104 80.6472 73.8928 80.0393 74.0144C79.4314 74.136 78.756 74.1968 78.013 74.1968C77.135 74.1968 76.3244 74.0752 75.5814 73.8388C74.8385 73.6024 74.1968 73.2444 73.67 72.7716C73.1364 72.2988 72.7176 71.7044 72.4204 71.0019C72.1232 70.2995 71.9746 69.4755 71.9746 68.5434C71.9746 67.7599 72.1772 66.9831 72.596 66.2131C73.008 65.4499 73.6902 64.7542 74.6493 64.1395C75.6085 63.5249 76.885 63.0115 78.4791 62.6063C80.0731 62.201 82.0521 61.9984 84.4162 61.9984V60.7758C84.4162 59.3709 84.1257 58.3375 83.5381 57.6621C82.9505 56.9866 82.0927 56.6489 80.9782 56.6489C80.1677 56.6489 79.4922 56.7435 78.9519 56.9326C78.4115 57.1217 77.9387 57.3379 77.547 57.5743C77.1485 57.8107 76.777 58.0268 76.4392 58.2092C76.1015 58.3983 75.73 58.4929 75.3248 58.4929C74.9871 58.4929 74.6966 58.405 74.4535 58.2294C74.2103 58.0538 74.0144 57.8377 73.8658 57.581L72.954 55.9802C75.345 53.7918 78.2292 52.6976 81.6063 52.6976C82.8221 52.6976 83.9096 52.8935 84.8619 53.292C85.8143 53.6905 86.6181 54.2444 87.28 54.9536C87.9419 55.6628 88.4418 56.5138 88.7862 57.4932C89.1307 58.4793 89.3063 59.56 89.3063 60.7353V73.8658L89.2996 73.8726ZM79.5733 70.752C80.0866 70.752 80.5594 70.7048 80.9917 70.6102C81.424 70.5156 81.836 70.3805 82.221 70.1914C82.606 70.0023 82.9775 69.7794 83.3355 69.5025C83.6934 69.2323 84.0514 68.9081 84.4162 68.5366V65.0581C82.9572 65.0581 81.7414 65.1527 80.7553 65.335C79.7759 65.5174 78.9856 65.7538 78.3913 66.0375C77.7969 66.3212 77.3781 66.6589 77.1282 67.0371C76.8783 67.4154 76.7499 67.8341 76.7499 68.2799C76.7499 69.1648 77.0134 69.7997 77.5335 70.1779C78.0535 70.5562 78.729 70.752 79.5665 70.752H79.5733Z" fill="#4F2C1D"/>
<path d="M92.1968 73.8726V53.0826H95.1349C95.6483 53.0826 96.0062 53.1772 96.2089 53.3663C96.4115 53.5554 96.5466 53.8796 96.6141 54.3389L96.9181 56.8515C97.6611 55.5682 98.5324 54.5551 99.532 53.8121C100.532 53.0691 101.653 52.6976 102.896 52.6976C103.922 52.6976 104.773 52.934 105.449 53.4068L104.8 57.1555C104.76 57.3986 104.672 57.5743 104.537 57.6688C104.402 57.7701 104.22 57.8242 103.99 57.8242C103.787 57.8242 103.51 57.7769 103.159 57.6823C102.808 57.5878 102.342 57.5405 101.761 57.5405C100.721 57.5405 99.8292 57.8242 99.0862 58.3983C98.3433 58.9724 97.7151 59.8167 97.2018 60.9244V73.8726H92.1968Z" fill="#4F2C1D"/>
<path d="M112.805 47.0239C112.805 47.4562 112.717 47.8615 112.541 48.2397C112.365 48.618 112.129 48.9489 111.839 49.2326C111.548 49.5163 111.204 49.7459 110.819 49.9148C110.427 50.0837 110.008 50.1715 109.562 50.1715C109.117 50.1715 108.718 50.0904 108.34 49.9148C107.955 49.7459 107.617 49.523 107.333 49.2326C107.05 48.9489 106.827 48.618 106.658 48.2397C106.489 47.8615 106.401 47.4562 106.401 47.0239C106.401 46.5917 106.482 46.1594 106.658 45.7676C106.827 45.3759 107.05 45.0381 107.333 44.7545C107.617 44.4708 107.955 44.2479 108.34 44.079C108.725 43.9102 109.13 43.8224 109.562 43.8224C109.995 43.8224 110.427 43.9034 110.819 44.079C111.21 44.2479 111.548 44.4708 111.839 44.7545C112.129 45.0381 112.365 45.3759 112.541 45.7676C112.717 46.1594 112.805 46.5781 112.805 47.0239ZM112.055 53.0826V73.8726H107.05V53.0826H112.055Z" fill="#4F2C1D"/>
<path d="M131.974 73.8726H129.725C129.252 73.8726 128.88 73.7983 128.61 73.6564C128.34 73.5146 128.137 73.2309 128.002 72.7986L127.557 71.3194C127.03 71.7922 126.516 72.211 126.01 72.569C125.503 72.9269 124.976 73.2241 124.436 73.4673C123.896 73.7104 123.322 73.8928 122.714 74.0144C122.106 74.136 121.43 74.1968 120.687 74.1968C119.809 74.1968 118.999 74.0752 118.256 73.8388C117.513 73.6024 116.871 73.2444 116.344 72.7716C115.811 72.2988 115.392 71.7044 115.095 71.0019C114.798 70.2995 114.649 69.4755 114.649 68.5434C114.649 67.7599 114.852 66.9831 115.27 66.2131C115.682 65.4499 116.365 64.7542 117.324 64.1395C118.283 63.5249 119.559 63.0115 121.153 62.6063C122.747 62.201 124.726 61.9984 127.09 61.9984V60.7758C127.09 59.3709 126.793 58.3375 126.206 57.6621C125.618 56.9866 124.767 56.6489 123.646 56.6489C122.835 56.6489 122.16 56.7435 121.619 56.9326C121.079 57.1217 120.606 57.3379 120.215 57.5743C119.823 57.8107 119.451 58.0268 119.114 58.2092C118.776 58.3983 118.404 58.4929 117.999 58.4929C117.661 58.4929 117.371 58.405 117.128 58.2294C116.885 58.0538 116.689 57.8377 116.54 57.581L115.628 55.9802C118.019 53.7918 120.903 52.6976 124.281 52.6976C125.496 52.6976 126.577 52.8935 127.53 53.292C128.482 53.6905 129.286 54.2444 129.948 54.9536C130.609 55.6628 131.116 56.5138 131.461 57.4932C131.805 58.4793 131.974 59.56 131.974 60.7353V73.8658V73.8726ZM122.248 70.752C122.761 70.752 123.234 70.7048 123.666 70.6102C124.098 70.5156 124.51 70.3805 124.895 70.1914C125.28 70.0023 125.652 69.7794 126.01 69.5025C126.368 69.2323 126.732 68.9081 127.097 68.5366V65.0581C125.638 65.0581 124.416 65.1527 123.436 65.335C122.457 65.5174 121.667 65.7538 121.072 66.0375C120.478 66.3212 120.059 66.6589 119.803 67.0371C119.553 67.4154 119.424 67.8341 119.424 68.2799C119.424 69.1648 119.688 69.7997 120.208 70.1779C120.728 70.5562 121.403 70.752 122.248 70.752Z" fill="#4F2C1D"/>
<path d="M134.871 73.8726V53.0826H137.931C138.579 53.0826 139.005 53.3866 139.207 53.9944L139.552 55.6358C139.971 55.2035 140.416 54.8117 140.882 54.4605C141.349 54.1093 141.842 53.8053 142.362 53.5487C142.882 53.292 143.436 53.0961 144.03 52.961C144.624 52.8259 145.273 52.7584 145.975 52.7584C147.11 52.7584 148.116 52.9543 148.994 53.3325C149.873 53.7175 150.602 54.2579 151.196 54.9536C151.784 55.6493 152.23 56.4801 152.534 57.4459C152.838 58.4118 152.986 59.479 152.986 60.6407V73.8726H147.981V60.6407C147.981 59.3709 147.684 58.3915 147.103 57.6891C146.516 56.9934 145.631 56.6489 144.462 56.6489C143.598 56.6489 142.787 56.8448 142.031 57.2365C141.274 57.6283 140.558 58.1619 139.883 58.8373V73.8726H134.878H134.871Z" fill="#4F2C1D"/>
<path d="M79.1953 79.5935V80.2825H73.1569V84.916H78.1821V85.5914H73.1569V90.3735H79.1953V91.0624H72.3193V79.5935H79.1953Z" fill="#4F2C1D"/>
<path d="M90.6975 80.9849C90.6502 81.0795 90.5759 81.12 90.4881 81.12C90.4206 81.12 90.326 81.0727 90.2179 80.9714C90.1031 80.8701 89.9545 80.762 89.7654 80.6404C89.5763 80.5188 89.3399 80.404 89.0562 80.3027C88.7725 80.2014 88.4213 80.1474 88.0025 80.1474C87.5837 80.1474 87.219 80.2081 86.9015 80.323C86.5841 80.4445 86.3207 80.6067 86.1045 80.8093C85.8884 81.0119 85.7263 81.2551 85.6182 81.5252C85.5034 81.7954 85.4493 82.0791 85.4493 82.3763C85.4493 82.768 85.5304 83.0855 85.6993 83.3422C85.8681 83.5988 86.0843 83.815 86.3544 83.9906C86.6246 84.1662 86.9286 84.3216 87.273 84.4431C87.6175 84.5647 87.9687 84.6863 88.3335 84.8011C88.6982 84.9227 89.0494 85.051 89.3939 85.1929C89.7384 85.3347 90.0423 85.5171 90.3125 85.7332C90.5827 85.9494 90.7988 86.2128 90.9677 86.5302C91.1365 86.8477 91.2176 87.2394 91.2176 87.7122C91.2176 88.1851 91.1365 88.6443 90.9677 89.0699C90.7988 89.4954 90.5624 89.8601 90.2517 90.1776C89.941 90.495 89.556 90.7382 89.1035 90.9206C88.6509 91.1029 88.1308 91.1907 87.55 91.1907C86.7935 91.1907 86.145 91.0557 85.5979 90.7922C85.0508 90.5221 84.5713 90.1573 84.166 89.6913L84.3957 89.3333C84.4632 89.2522 84.5375 89.2117 84.6253 89.2117C84.6726 89.2117 84.7334 89.2455 84.8144 89.3063C84.8887 89.3738 84.9833 89.4481 85.0914 89.5427C85.1994 89.6372 85.3278 89.7386 85.4831 89.8534C85.6385 89.9682 85.8073 90.0695 86.01 90.1641C86.2126 90.2587 86.4422 90.3397 86.6989 90.4005C86.9556 90.468 87.2528 90.495 87.5837 90.495C88.0363 90.495 88.4415 90.4275 88.7995 90.2857C89.1575 90.1506 89.4614 89.9615 89.7046 89.725C89.9478 89.4886 90.1369 89.205 90.2652 88.8808C90.3935 88.5565 90.4611 88.2053 90.4611 87.8338C90.4611 87.4286 90.38 87.0976 90.2112 86.8342C90.0423 86.5708 89.8262 86.3546 89.556 86.179C89.2858 86.0034 88.9819 85.8548 88.6374 85.74C88.2929 85.6252 87.9417 85.5036 87.577 85.3887C87.2122 85.2739 86.861 85.1456 86.5165 85.0105C86.1721 84.8754 85.8681 84.693 85.5979 84.4701C85.3278 84.254 85.1116 83.9771 84.9428 83.6529C84.7807 83.3287 84.6929 82.9166 84.6929 82.4236C84.6929 82.0386 84.7672 81.6671 84.909 81.3159C85.0576 80.9579 85.267 80.6472 85.5507 80.3702C85.8343 80.1001 86.1788 79.8772 86.5908 79.7151C87.0028 79.553 87.4757 79.4652 88.0093 79.4652C88.6036 79.4652 89.1372 79.5597 89.61 79.7488C90.0828 79.938 90.5151 80.2284 90.9069 80.6134L90.711 80.9849H90.6975Z" fill="#4F2C1D"/>
<path d="M104.349 79.5935V80.296H100.323V91.0624H99.4989V80.296H95.4463V79.5935H104.355H104.349Z" fill="#4F2C1D"/>
<path d="M117.276 91.0624H116.635C116.561 91.0624 116.5 91.0422 116.446 91.0016C116.398 90.9611 116.358 90.9071 116.331 90.8463L114.98 87.5164H109.347L108.003 90.8463C107.982 90.9071 107.942 90.9544 107.888 91.0016C107.834 91.0422 107.766 91.0692 107.692 91.0692H107.057L111.751 79.6003H112.575L117.27 91.0692L117.276 91.0624ZM109.604 86.895H114.744L112.4 81.0997C112.359 81.0052 112.326 80.9039 112.285 80.789C112.244 80.6742 112.211 80.5526 112.17 80.4175C112.13 80.5459 112.096 80.6675 112.055 80.789C112.015 80.9106 111.981 81.0119 111.941 81.1065L109.597 86.895H109.604Z" fill="#4F2C1D"/>
<path d="M128.887 79.5935V80.296H124.862V91.0624H124.037V80.296H119.985V79.5935H128.894H128.887Z" fill="#4F2C1D"/>
<path d="M140.991 79.5935V80.2825H134.952V84.916H139.978V85.5914H134.952V90.3735H140.991V91.0624H134.115V79.5935H140.991Z" fill="#4F2C1D"/>
<path d="M152.493 80.9849C152.446 81.0795 152.372 81.12 152.284 81.12C152.216 81.12 152.122 81.0727 152.014 80.9714C151.899 80.8701 151.75 80.762 151.561 80.6404C151.372 80.5188 151.136 80.404 150.852 80.3027C150.568 80.2014 150.217 80.1474 149.798 80.1474C149.38 80.1474 149.015 80.2081 148.697 80.323C148.38 80.4378 148.117 80.6067 147.9 80.8093C147.684 81.0119 147.522 81.2551 147.414 81.5252C147.299 81.7954 147.245 82.0791 147.245 82.3763C147.245 82.768 147.326 83.0855 147.495 83.3422C147.657 83.5988 147.88 83.815 148.15 83.9906C148.42 84.1662 148.731 84.3216 149.069 84.4431C149.413 84.5647 149.765 84.6863 150.129 84.8011C150.494 84.9227 150.845 85.051 151.19 85.1929C151.534 85.3347 151.838 85.5171 152.108 85.7332C152.379 85.9494 152.595 86.2128 152.764 86.5302C152.926 86.8477 153.013 87.2394 153.013 87.7122C153.013 88.1851 152.932 88.6443 152.764 89.0699C152.595 89.4954 152.358 89.8601 152.048 90.1776C151.737 90.495 151.352 90.7382 150.899 90.9206C150.447 91.1029 149.927 91.1907 149.346 91.1907C148.589 91.1907 147.941 91.0557 147.394 90.7922C146.847 90.5221 146.367 90.1573 145.962 89.6913L146.192 89.3333C146.259 89.2522 146.333 89.2117 146.421 89.2117C146.468 89.2117 146.536 89.2455 146.61 89.3063C146.685 89.3738 146.779 89.4481 146.887 89.5427C146.995 89.6372 147.124 89.7386 147.279 89.8534C147.428 89.9615 147.61 90.0695 147.806 90.1641C148.008 90.2587 148.238 90.3397 148.495 90.4005C148.751 90.468 149.049 90.495 149.38 90.495C149.832 90.495 150.237 90.4275 150.595 90.2857C150.953 90.1506 151.257 89.9615 151.5 89.725C151.75 89.4886 151.933 89.205 152.061 88.8808C152.189 88.5565 152.257 88.2053 152.257 87.8338C152.257 87.4286 152.176 87.0976 152.007 86.8342C151.845 86.5708 151.622 86.3546 151.352 86.179C151.082 86.0034 150.771 85.8548 150.433 85.74C150.096 85.6252 149.738 85.5036 149.373 85.3887C149.008 85.2739 148.657 85.1456 148.312 85.0105C147.968 84.8687 147.664 84.693 147.394 84.4701C147.124 84.254 146.908 83.9771 146.739 83.6529C146.577 83.3287 146.489 82.9166 146.489 82.4236C146.489 82.0386 146.563 81.6671 146.705 81.3159C146.853 80.9579 147.063 80.6472 147.347 80.3702C147.63 80.1001 147.975 79.8772 148.387 79.7151C148.799 79.553 149.272 79.4652 149.805 79.4652C150.4 79.4652 150.933 79.5597 151.406 79.7488C151.879 79.938 152.311 80.2284 152.703 80.6134L152.507 80.9849H152.493Z" fill="#4F2C1D"/>
<path d="M72.5347 14.8191L57.8845 17.3993C57.3036 17.5006 56.77 17.0548 56.77 16.4672V3.53255C56.77 3.07326 57.101 2.6815 57.5535 2.60045L72.2038 0.0135261C72.7846 -0.0877895 73.3182 0.357999 73.3182 0.945629V13.8802C73.3182 14.3395 72.9873 14.7313 72.5347 14.8124V14.8191Z" fill="#2C9293"/>
<path d="M72.5347 31.8401L57.8845 34.4203C57.3036 34.5216 56.77 34.0758 56.77 33.4882V20.5536C56.77 20.0943 57.101 19.7025 57.5535 19.6215L72.2038 17.0413C72.7846 16.94 73.3182 17.3858 73.3182 17.9734V30.908C73.3182 31.3673 72.9873 31.7591 72.5347 31.8401Z" fill="#2C9293"/>
<path d="M92.2106 37.8785L76.0272 31.9887C75.6557 31.8536 75.4058 31.4956 75.4058 31.1039V18.2503C75.4058 17.5951 76.0542 17.1426 76.6688 17.3655L92.8523 23.2553C93.2238 23.3904 93.4737 23.7484 93.4737 24.1401V36.9937C93.4737 37.6489 92.8253 38.1014 92.2106 37.8785Z" fill="#A1CD3A"/>
<path d="M89.0023 19.689L76.0272 14.9677C75.6557 14.8326 75.4058 14.4746 75.4058 14.0829V1.22931C75.4058 0.574135 76.0542 0.121592 76.6688 0.344486L89.644 5.06579C90.0155 5.20088 90.2654 5.55886 90.2654 5.95061V18.8042C90.2654 19.4594 89.617 19.9119 89.0023 19.689Z" fill="#A1CD3A"/>
</g>
<defs>
<clipPath id="clip0_67_761">
<rect width="153" height="91.1908" fill="white"/>
</clipPath>
</defs>
</svg>
