<svg width="44" height="45" viewBox="0 0 44 45" fill="none" xmlns="http://www.w3.org/2000/svg">
<g clip-path="url(#clip0_49_749)">
<path d="M35.75 23.9631C36.6953 23.9631 37.5833 24.1422 38.4141 24.5002C39.2448 24.8583 39.9753 25.3453 40.6055 25.9612C41.2357 26.5771 41.7298 27.3075 42.0879 28.1526C42.446 28.9976 42.625 29.8928 42.625 30.8381C42.625 31.5829 42.5104 32.3062 42.2812 33.0081C42.0521 33.7099 41.7083 34.3616 41.25 34.9631V44.0725L35.75 41.3225L30.25 44.0725V34.9631C29.806 34.3616 29.4694 33.7099 29.2402 33.0081C29.0111 32.3062 28.8893 31.5829 28.875 30.8381C28.875 29.8928 29.054 29.0048 29.4121 28.1741C29.7702 27.3433 30.2572 26.6129 30.873 25.9827C31.4889 25.3525 32.2194 24.8583 33.0645 24.5002C33.9095 24.1422 34.8047 23.9631 35.75 23.9631ZM35.75 26.7131C35.1771 26.7131 34.64 26.8206 34.1387 27.0354C33.6374 27.2502 33.2005 27.5439 32.8281 27.9163C32.4557 28.2887 32.1621 28.7255 31.9473 29.2268C31.7324 29.7281 31.625 30.2652 31.625 30.8381C31.625 31.4111 31.7324 31.9482 31.9473 32.4495C32.1621 32.9508 32.4557 33.3876 32.8281 33.76C33.2005 34.1324 33.6374 34.426 34.1387 34.6409C34.64 34.8557 35.1771 34.9631 35.75 34.9631C36.3229 34.9631 36.86 34.8557 37.3613 34.6409C37.8626 34.426 38.2995 34.1324 38.6719 33.76C39.0443 33.3876 39.3379 32.9508 39.5527 32.4495C39.7676 31.9482 39.875 31.4111 39.875 30.8381C39.875 30.2652 39.7676 29.7281 39.5527 29.2268C39.3379 28.7255 39.0443 28.2887 38.6719 27.9163C38.2995 27.5439 37.8626 27.2502 37.3613 27.0354C36.86 26.8206 36.3229 26.7131 35.75 26.7131ZM38.5 39.6038V37.1331C37.6406 37.5198 36.724 37.7131 35.75 37.7131C34.776 37.7131 33.8594 37.5198 33 37.1331V39.6038L35.75 38.2288L38.5 39.6038ZM35.75 11.5881C34.9909 11.5881 34.2819 11.7314 33.623 12.0178C32.9642 12.3043 32.377 12.6982 31.8613 13.1995C31.3457 13.7008 30.9518 14.2808 30.6797 14.9397C30.4076 15.5986 30.2643 16.3147 30.25 17.0881C30.25 18.4058 29.9564 19.6448 29.3691 20.8049C28.7819 21.9651 27.9512 22.9462 26.877 23.7483C27.1491 23.8772 27.4069 24.0204 27.6504 24.178C27.8939 24.3355 28.1445 24.5002 28.4023 24.6721L26.791 26.9065C26.0892 26.4052 25.3301 26.0185 24.5137 25.7463C23.6973 25.4742 22.8594 25.3381 22 25.3381C20.8542 25.3381 19.7871 25.553 18.7988 25.9827C17.8105 26.4124 16.9368 26.9996 16.1777 27.7444C15.4186 28.4892 14.8242 29.37 14.3945 30.387C13.9648 31.4039 13.75 32.4709 13.75 33.5881H11C11 32.5426 11.1432 31.5328 11.4297 30.5588C11.7161 29.5849 12.1243 28.6682 12.6543 27.8088C13.1842 26.9495 13.8216 26.176 14.5664 25.4885C15.3112 24.801 16.1562 24.2138 17.1016 23.7268C16.0417 22.939 15.2181 21.9651 14.6309 20.8049C14.0436 19.6448 13.75 18.4058 13.75 17.0881C13.75 16.329 13.6068 15.62 13.3203 14.9612C13.0339 14.3023 12.64 13.7151 12.1387 13.1995C11.6374 12.6838 11.0573 12.29 10.3984 12.0178C9.73958 11.7457 9.02344 11.6025 8.25 11.5881C7.49089 11.5881 6.7819 11.7314 6.12305 12.0178C5.46419 12.3043 4.87695 12.6982 4.36133 13.1995C3.8457 13.7008 3.45182 14.2808 3.17969 14.9397C2.90755 15.5986 2.76432 16.3147 2.75 17.0881H0C0 16.3433 0.10026 15.62 0.300781 14.9182C0.501302 14.2164 0.780599 13.5504 1.13867 12.9202C1.49674 12.29 1.94076 11.717 2.4707 11.2014C3.00065 10.6858 3.59505 10.2418 4.25391 9.86938C3.78125 9.36808 3.41602 8.788 3.1582 8.12915C2.90039 7.4703 2.76432 6.78996 2.75 6.08813C2.75 5.32902 2.89323 4.62004 3.17969 3.96118C3.46615 3.30233 3.86003 2.71509 4.36133 2.19946C4.86263 1.68384 5.44271 1.28996 6.10156 1.01782C6.76042 0.745687 7.47656 0.602458 8.25 0.588135C9.00911 0.588135 9.7181 0.731364 10.377 1.01782C11.0358 1.30428 11.623 1.69816 12.1387 2.19946C12.6543 2.70076 13.0482 3.28084 13.3203 3.9397C13.5924 4.59855 13.7357 5.3147 13.75 6.08813C13.75 6.78996 13.6211 7.4703 13.3633 8.12915C13.1055 8.788 12.7331 9.36808 12.2461 9.86938C13.4206 10.5139 14.3802 11.4019 15.125 12.5334C15.5117 11.9605 15.9557 11.4449 16.457 10.9866C16.9583 10.5282 17.5026 10.1415 18.0898 9.82642C18.6771 9.51131 19.3001 9.26782 19.959 9.09595C20.6178 8.92407 21.2982 8.83813 22 8.83813C22.6875 8.83813 23.3607 8.92407 24.0195 9.09595C24.6784 9.26782 25.3014 9.51131 25.8887 9.82642C26.4759 10.1415 27.0273 10.5282 27.543 10.9866C28.0586 11.4449 28.5026 11.9605 28.875 12.5334C29.6198 11.4019 30.5794 10.5139 31.7539 9.86938C31.2812 9.36808 30.916 8.788 30.6582 8.12915C30.4004 7.4703 30.2643 6.78996 30.25 6.08813C30.25 5.32902 30.3932 4.62004 30.6797 3.96118C30.9661 3.30233 31.36 2.71509 31.8613 2.19946C32.3626 1.68384 32.9427 1.28996 33.6016 1.01782C34.2604 0.745687 34.9766 0.602458 35.75 0.588135C36.5091 0.588135 37.2181 0.731364 37.877 1.01782C38.5358 1.30428 39.123 1.69816 39.6387 2.19946C40.1543 2.70076 40.5482 3.28084 40.8203 3.9397C41.0924 4.59855 41.2357 5.3147 41.25 6.08813C41.25 6.78996 41.1211 7.4703 40.8633 8.12915C40.6055 8.788 40.2331 9.36808 39.7461 9.86938C40.4049 10.2418 40.9922 10.6858 41.5078 11.2014C42.0234 11.717 42.4674 12.2828 42.8398 12.8987C43.2122 13.5146 43.4987 14.1806 43.6992 14.8967C43.8997 15.6129 44 16.3433 44 17.0881H41.25C41.25 16.329 41.1068 15.62 40.8203 14.9612C40.5339 14.3023 40.14 13.7151 39.6387 13.1995C39.1374 12.6838 38.5573 12.29 37.8984 12.0178C37.2396 11.7457 36.5234 11.6025 35.75 11.5881ZM33 6.08813C33 6.47485 33.0716 6.83293 33.2148 7.16235C33.3581 7.49178 33.5514 7.77824 33.7949 8.02173C34.0384 8.26522 34.332 8.46574 34.6758 8.62329C35.0195 8.78084 35.3776 8.85246 35.75 8.83813C36.1367 8.83813 36.4948 8.76652 36.8242 8.62329C37.1536 8.48006 37.4401 8.2867 37.6836 8.04321C37.9271 7.79972 38.1276 7.5061 38.2852 7.16235C38.4427 6.8186 38.5143 6.46053 38.5 6.08813C38.5 5.70142 38.4284 5.34334 38.2852 5.01392C38.1419 4.68449 37.9486 4.39803 37.7051 4.15454C37.4616 3.91105 37.168 3.71053 36.8242 3.55298C36.4805 3.39543 36.1224 3.32381 35.75 3.33813C35.3633 3.33813 35.0052 3.40975 34.6758 3.55298C34.3464 3.69621 34.0599 3.88957 33.8164 4.13306C33.5729 4.37655 33.3724 4.67017 33.2148 5.01392C33.0573 5.35767 32.9857 5.71574 33 6.08813ZM5.5 6.08813C5.5 6.47485 5.57161 6.83293 5.71484 7.16235C5.85807 7.49178 6.05143 7.77824 6.29492 8.02173C6.53841 8.26522 6.83203 8.46574 7.17578 8.62329C7.51953 8.78084 7.8776 8.85246 8.25 8.83813C8.63672 8.83813 8.99479 8.76652 9.32422 8.62329C9.65365 8.48006 9.9401 8.2867 10.1836 8.04321C10.4271 7.79972 10.6276 7.5061 10.7852 7.16235C10.9427 6.8186 11.0143 6.46053 11 6.08813C11 5.70142 10.9284 5.34334 10.7852 5.01392C10.6419 4.68449 10.4486 4.39803 10.2051 4.15454C9.96159 3.91105 9.66797 3.71053 9.32422 3.55298C8.98047 3.39543 8.6224 3.32381 8.25 3.33813C7.86328 3.33813 7.50521 3.40975 7.17578 3.55298C6.84635 3.69621 6.5599 3.88957 6.31641 4.13306C6.07292 4.37655 5.8724 4.67017 5.71484 5.01392C5.55729 5.35767 5.48568 5.71574 5.5 6.08813ZM16.5 17.0881C16.5 17.8472 16.6432 18.5562 16.9297 19.2151C17.2161 19.8739 17.61 20.4612 18.1113 20.9768C18.6126 21.4924 19.1927 21.8863 19.8516 22.1584C20.5104 22.4306 21.2266 22.5738 22 22.5881C22.7591 22.5881 23.4681 22.4449 24.127 22.1584C24.7858 21.872 25.373 21.4781 25.8887 20.9768C26.4043 20.4755 26.7982 19.8954 27.0703 19.2366C27.3424 18.5777 27.4857 17.8616 27.5 17.0881C27.5 16.329 27.3568 15.62 27.0703 14.9612C26.7839 14.3023 26.39 13.7151 25.8887 13.1995C25.3874 12.6838 24.8073 12.29 24.1484 12.0178C23.4896 11.7457 22.7734 11.6025 22 11.5881C21.2409 11.5881 20.5319 11.7314 19.873 12.0178C19.2142 12.3043 18.627 12.6982 18.1113 13.1995C17.5957 13.7008 17.2018 14.2808 16.9297 14.9397C16.6576 15.5986 16.5143 16.3147 16.5 17.0881Z" fill="#299393"/>
</g>
<defs>
<clipPath id="clip0_49_749">
<rect width="44" height="44" fill="white" transform="translate(0 0.588135)"/>
</clipPath>
</defs>
</svg>
