<svg width="25" height="24" viewBox="0 0 25 24" fill="none" xmlns="http://www.w3.org/2000/svg">
<g clip-path="url(#clip0_290_4374)">
<path d="M-3.21655 -0.310547H37.408V24.5884H-3.21655V-0.310547Z" fill="#D22F27"/>
<path d="M20.136 10.2062L22.1357 12.8396L18.9028 11.8358L22.1344 10.8261L20.1386 13.4634L20.136 10.2062ZM14.0095 17.8004C13.1539 17.7978 12.3099 17.6013 11.5411 17.2257C10.7723 16.8502 10.0986 16.3053 9.57054 15.632C9.04253 14.9587 8.67394 14.1745 8.49248 13.3383C8.31102 12.5021 8.3214 11.6356 8.52283 10.804C8.72427 9.97242 9.11153 9.19727 9.65553 8.5368C10.1995 7.87633 10.8861 7.34772 11.6637 6.99067C12.4413 6.63362 13.2897 6.45741 14.1452 6.47529C15.0006 6.49317 15.8409 6.70466 16.6029 7.09388C15.6015 6.06963 14.3176 5.36701 12.9151 5.07568C11.5126 4.78436 10.0551 4.91755 8.72864 5.45826C7.40216 5.99896 6.26688 6.92266 5.46771 8.11144C4.66853 9.30023 4.2417 10.7002 4.2417 12.1326C4.2417 13.5651 4.66853 14.965 5.46771 16.1538C6.26688 17.3426 7.40216 18.2663 8.72864 18.807C10.0551 19.3477 11.5126 19.4809 12.9151 19.1896C14.3176 18.8983 15.6015 18.1956 16.6029 17.1714C15.7999 17.581 14.9111 17.7944 14.0095 17.7939V17.8004Z" fill="white" stroke="white" stroke-width="0.36857" stroke-linecap="round" stroke-linejoin="round"/>
</g>
<defs>
<clipPath id="clip0_290_4374">
<rect x="0.0146484" width="24" height="24" rx="12" fill="white"/>
</clipPath>
</defs>
</svg>
